<mxfile host="65bd71144e">
    <diagram id="xUSX7O_XIHxuEOH3Kcca" name="Page-1">
        <mxGraphModel dx="1271" dy="1572" grid="1" gridSize="10" guides="1" tooltips="1" connect="1" arrows="1" fold="1" page="1" pageScale="1" pageWidth="850" pageHeight="1100" math="0" shadow="0">
            <root>
                <mxCell id="0"/>
                <mxCell id="1" parent="0"/>
                <mxCell id="_5QAXH1XhkQ4un_ZABmQ-19" style="edgeStyle=orthogonalEdgeStyle;rounded=0;orthogonalLoop=1;jettySize=auto;html=1;exitX=0.5;exitY=1;exitDx=0;exitDy=0;" parent="1" source="sva-16686790202040" target="_5QAXH1XhkQ4un_ZABmQ-4" edge="1">
                    <mxGeometry relative="1" as="geometry"/>
                </mxCell>
                <mxCell id="_5QAXH1XhkQ4un_ZABmQ-35" style="edgeStyle=orthogonalEdgeStyle;rounded=0;orthogonalLoop=1;jettySize=auto;html=1;exitX=0.5;exitY=1;exitDx=0;exitDy=0;" parent="1" source="sva-16686790202040" target="_5QAXH1XhkQ4un_ZABmQ-20" edge="1">
                    <mxGeometry relative="1" as="geometry"/>
                </mxCell>
                <UserObject label="VestFactory" rparent="-" type="" override="" placeholders="1" id="sva-16686790202040">
                    <mxCell style="swimlane;html=1;fontStyle=0;childLayout=stackLayout;horizontal=1;startSize=26;fillColor=#e0e0e0;horizontalStack=0;resizeParent=1;resizeLast=0;collapsible=1;marginBottom=0;swimlaneFillColor=#ffffff;align=center;rounded=1;shadow=0;comic=0;labelBackgroundColor=none;strokeColor=#000000;strokeWidth=1;fontFamily=Verdana;fontSize=12;fontColor=#000000;arcSize=20;" parent="1" vertex="1">
                        <mxGeometry x="540" y="-270" width="90" height="116" as="geometry"/>
                    </mxCell>
                </UserObject>
                <UserObject label="i2SVstruct" rparent="0" type="mxgraph.bootstrap.rrect;strokeColor=none" override="fontSize=6" placeholders="1" id="sva-16686790202040_i0">
                    <mxCell style="shape=mxgraph.bootstrap.rrect;strokeColor=none;html=1;fillColor=#fff2cc;strokeColor=#d6b656;dashed=1;spacingLeft=4;spacingRight=4;whiteSpace=wrap;overflow=hidden;rotatable=0;points=[[0,0.5],[1,0.5]];portConstraint=eastwest;fontFamily=Courier New;fontSize=10;align=left;fontSize=6" parent="sva-16686790202040" vertex="1">
                        <mxGeometry y="26" width="90" height="20" as="geometry"/>
                    </mxCell>
                </UserObject>
                <UserObject label="OTC/2ndFundrz" rparent="-" type="" override="" placeholders="1" id="sva-16686795008600">
                    <mxCell style="swimlane;html=1;fontStyle=0;childLayout=stackLayout;horizontal=1;startSize=26;fillColor=#e0e0e0;horizontalStack=0;resizeParent=1;resizeLast=0;collapsible=1;marginBottom=0;swimlaneFillColor=#ffffff;align=center;rounded=1;shadow=0;comic=0;labelBackgroundColor=none;strokeColor=#000000;strokeWidth=1;fontFamily=Verdana;fontSize=12;fontColor=#000000;arcSize=20;" parent="1" vertex="1">
                        <mxGeometry x="280" y="77" width="160" height="463" as="geometry"/>
                    </mxCell>
                </UserObject>
                <UserObject label="i2SV" rparent="0" type="mxgraph.bootstrap.rrect;strokeColor=none" override="fontSize=6" placeholders="1" id="sva-16686795008600_i0">
                    <mxCell style="shape=mxgraph.bootstrap.rrect;strokeColor=none;html=1;fillColor=#fff2cc;strokeColor=#d6b656;dashed=1;spacingLeft=4;spacingRight=4;whiteSpace=wrap;overflow=hidden;rotatable=0;points=[[0,0.5],[1,0.5]];portConstraint=eastwest;fontFamily=Courier New;fontSize=10;align=left;fontSize=6" parent="sva-16686795008600" vertex="1">
                        <mxGeometry y="26" width="160" height="20" as="geometry"/>
                    </mxCell>
                </UserObject>
                <UserObject label="SafeMath" rparent="0" type="mxgraph.bootstrap.rrect" override="fontSize=6" placeholders="1" id="sva-16686795008600_u0">
                    <mxCell style="shape=mxgraph.bootstrap.rrect;html=1;fillColor=#E3F7E2;strokeColor=#82b366;dashed=1;spacingLeft=4;spacingRight=4;whiteSpace=wrap;overflow=hidden;rotatable=0;points=[[0,0.5],[1,0.5]];portConstraint=eastwest;fontFamily=Courier New;fontSize=10;align=left;fontSize=6" parent="sva-16686795008600" vertex="1">
                        <mxGeometry y="46" width="160" height="20" as="geometry"/>
                    </mxCell>
                </UserObject>
                <UserObject label="setVesting" rparent="0" type="text;strokeColor=none" override="" placeholders="1" id="sva-16686795008600_f0">
                    <mxCell style="shape=text;strokeColor=none;html=1;fillColor=none;spacingLeft=4;spacingRight=4;whiteSpace=wrap;overflow=hidden;rotatable=0;points=[[0,0.5],[1,0.5]];portConstraint=eastwest;fontFamily=Courier New;fontSize=10;align=left;" parent="sva-16686795008600" vertex="1">
                        <mxGeometry y="66" width="160" height="30" as="geometry"/>
                    </mxCell>
                </UserObject>
                <UserObject label="💰 putVesting" rparent="0" type="text;strokeColor=none" override="" placeholders="1" id="sva-16686795008600_f1">
                    <mxCell style="shape=text;strokeColor=none;html=1;fillColor=none;spacingLeft=4;spacingRight=4;whiteSpace=wrap;overflow=hidden;rotatable=0;points=[[0,0.5],[1,0.5]];portConstraint=eastwest;fontFamily=Courier New;fontSize=10;align=left;" parent="sva-16686795008600" vertex="1">
                        <mxGeometry y="96" width="160" height="30" as="geometry"/>
                    </mxCell>
                </UserObject>
                <UserObject label="🔍 isPaused" rparent="0" type="text;strokeColor=none" override="" placeholders="1" id="sva-16686795008600_f2">
                    <mxCell style="shape=text;strokeColor=none;html=1;fillColor=none;spacingLeft=4;spacingRight=4;whiteSpace=wrap;overflow=hidden;rotatable=0;points=[[0,0.5],[1,0.5]];portConstraint=eastwest;fontFamily=Courier New;fontSize=10;align=left;" parent="sva-16686795008600" vertex="1">
                        <mxGeometry y="126" width="160" height="30" as="geometry"/>
                    </mxCell>
                </UserObject>
                <UserObject label="🔍 availableClaimToken1" rparent="0" type="text;strokeColor=none" override="" placeholders="1" id="sva-16686795008600_f3">
                    <mxCell style="shape=text;strokeColor=none;html=1;fillColor=none;spacingLeft=4;spacingRight=4;whiteSpace=wrap;overflow=hidden;rotatable=0;points=[[0,0.5],[1,0.5]];portConstraint=eastwest;fontFamily=Courier New;fontSize=10;align=left;" parent="sva-16686795008600" vertex="1">
                        <mxGeometry y="156" width="160" height="30" as="geometry"/>
                    </mxCell>
                </UserObject>
                <UserObject label="claimWithdrawToken1" rparent="0" type="text;strokeColor=none" override="" placeholders="1" id="sva-16686795008600_f4">
                    <mxCell style="shape=text;strokeColor=none;html=1;fillColor=none;spacingLeft=4;spacingRight=4;whiteSpace=wrap;overflow=hidden;rotatable=0;points=[[0,0.5],[1,0.5]];portConstraint=eastwest;fontFamily=Courier New;fontSize=10;align=left;" parent="sva-16686795008600" vertex="1">
                        <mxGeometry y="186" width="160" height="30" as="geometry"/>
                    </mxCell>
                </UserObject>
                <UserObject label="🔍 availableClaimToken2" rparent="0" type="text;strokeColor=none" override="" placeholders="1" id="sva-16686795008600_f5">
                    <mxCell style="shape=text;strokeColor=none;html=1;fillColor=none;spacingLeft=4;spacingRight=4;whiteSpace=wrap;overflow=hidden;rotatable=0;points=[[0,0.5],[1,0.5]];portConstraint=eastwest;fontFamily=Courier New;fontSize=10;align=left;" parent="sva-16686795008600" vertex="1">
                        <mxGeometry y="216" width="160" height="30" as="geometry"/>
                    </mxCell>
                </UserObject>
                <UserObject label="claimWithdrawToken2" rparent="0" type="text;strokeColor=none" override="" placeholders="1" id="sva-16686795008600_f6">
                    <mxCell style="shape=text;strokeColor=none;html=1;fillColor=none;spacingLeft=4;spacingRight=4;whiteSpace=wrap;overflow=hidden;rotatable=0;points=[[0,0.5],[1,0.5]];portConstraint=eastwest;fontFamily=Courier New;fontSize=10;align=left;" parent="sva-16686795008600" vertex="1">
                        <mxGeometry y="246" width="160" height="30" as="geometry"/>
                    </mxCell>
                </UserObject>
                <UserObject label="pauseWithdraw" rparent="0" type="text;strokeColor=none" override="" placeholders="1" id="sva-16686795008600_f7">
                    <mxCell style="shape=text;strokeColor=none;html=1;fillColor=none;spacingLeft=4;spacingRight=4;whiteSpace=wrap;overflow=hidden;rotatable=0;points=[[0,0.5],[1,0.5]];portConstraint=eastwest;fontFamily=Courier New;fontSize=10;align=left;" parent="sva-16686795008600" vertex="1">
                        <mxGeometry y="276" width="160" height="30" as="geometry"/>
                    </mxCell>
                </UserObject>
                <UserObject label="voteAbort" rparent="0" type="text;strokeColor=none" override="" placeholders="1" id="sva-16686795008600_f8">
                    <mxCell style="shape=text;strokeColor=none;html=1;fillColor=none;spacingLeft=4;spacingRight=4;whiteSpace=wrap;overflow=hidden;rotatable=0;points=[[0,0.5],[1,0.5]];portConstraint=eastwest;fontFamily=Courier New;fontSize=10;align=left;" parent="sva-16686795008600" vertex="1">
                        <mxGeometry y="306" width="160" height="30" as="geometry"/>
                    </mxCell>
                </UserObject>
                <UserObject label="refund" rparent="0" type="text;strokeColor=none" override="" placeholders="1" id="sva-16686795008600_f9">
                    <mxCell style="shape=text;strokeColor=none;html=1;fillColor=none;spacingLeft=4;spacingRight=4;whiteSpace=wrap;overflow=hidden;rotatable=0;points=[[0,0.5],[1,0.5]];portConstraint=eastwest;fontFamily=Courier New;fontSize=10;align=left;" parent="sva-16686795008600" vertex="1">
                        <mxGeometry y="336" width="160" height="30" as="geometry"/>
                    </mxCell>
                </UserObject>
                <UserObject label="🔍 getVestedTok1" rparent="0" type="text;strokeColor=none" override="" placeholders="1" id="sva-16686795008600_f10">
                    <mxCell style="shape=text;strokeColor=none;html=1;fillColor=none;spacingLeft=4;spacingRight=4;whiteSpace=wrap;overflow=hidden;rotatable=0;points=[[0,0.5],[1,0.5]];portConstraint=eastwest;fontFamily=Courier New;fontSize=10;align=left;" parent="sva-16686795008600" vertex="1">
                        <mxGeometry y="366" width="160" height="30" as="geometry"/>
                    </mxCell>
                </UserObject>
                <UserObject label="🔍 getVestedTok2" rparent="0" type="text;strokeColor=none" override="" placeholders="1" id="sva-16686795008600_f11">
                    <mxCell style="shape=text;strokeColor=none;html=1;fillColor=none;spacingLeft=4;spacingRight=4;whiteSpace=wrap;overflow=hidden;rotatable=0;points=[[0,0.5],[1,0.5]];portConstraint=eastwest;fontFamily=Courier New;fontSize=10;align=left;" parent="sva-16686795008600" vertex="1">
                        <mxGeometry y="396" width="160" height="30" as="geometry"/>
                    </mxCell>
                </UserObject>
                <mxCell id="_5QAXH1XhkQ4un_ZABmQ-2" style="edgeStyle=orthogonalEdgeStyle;rounded=0;orthogonalLoop=1;jettySize=auto;html=1;entryX=0.5;entryY=0;entryDx=0;entryDy=0;exitX=0.5;exitY=1;exitDx=0;exitDy=0;" parent="1" source="sva-16686790202040" target="sva-16686795008600" edge="1">
                    <mxGeometry relative="1" as="geometry"/>
                </mxCell>
                <UserObject label="1ndFunrizing" rparent="-" type="" override="" placeholders="1" id="_5QAXH1XhkQ4un_ZABmQ-4">
                    <mxCell style="swimlane;html=1;fontStyle=0;childLayout=stackLayout;horizontal=1;startSize=26;fillColor=#e0e0e0;horizontalStack=0;resizeParent=1;resizeLast=0;collapsible=1;marginBottom=0;swimlaneFillColor=#ffffff;align=center;rounded=1;shadow=0;comic=0;labelBackgroundColor=none;strokeColor=#000000;strokeWidth=1;fontFamily=Verdana;fontSize=12;fontColor=#000000;arcSize=20;" parent="1" vertex="1">
                        <mxGeometry x="80" y="77" width="160" height="463" as="geometry"/>
                    </mxCell>
                </UserObject>
                <UserObject label="i2SV" rparent="0" type="mxgraph.bootstrap.rrect;strokeColor=none" override="fontSize=6" placeholders="1" id="_5QAXH1XhkQ4un_ZABmQ-5">
                    <mxCell style="shape=mxgraph.bootstrap.rrect;strokeColor=none;html=1;fillColor=#fff2cc;strokeColor=#d6b656;dashed=1;spacingLeft=4;spacingRight=4;whiteSpace=wrap;overflow=hidden;rotatable=0;points=[[0,0.5],[1,0.5]];portConstraint=eastwest;fontFamily=Courier New;fontSize=10;align=left;fontSize=6" parent="_5QAXH1XhkQ4un_ZABmQ-4" vertex="1">
                        <mxGeometry y="26" width="160" height="20" as="geometry"/>
                    </mxCell>
                </UserObject>
                <UserObject label="SafeMath" rparent="0" type="mxgraph.bootstrap.rrect" override="fontSize=6" placeholders="1" id="_5QAXH1XhkQ4un_ZABmQ-6">
                    <mxCell style="shape=mxgraph.bootstrap.rrect;html=1;fillColor=#E3F7E2;strokeColor=#82b366;dashed=1;spacingLeft=4;spacingRight=4;whiteSpace=wrap;overflow=hidden;rotatable=0;points=[[0,0.5],[1,0.5]];portConstraint=eastwest;fontFamily=Courier New;fontSize=10;align=left;fontSize=6" parent="_5QAXH1XhkQ4un_ZABmQ-4" vertex="1">
                        <mxGeometry y="46" width="160" height="20" as="geometry"/>
                    </mxCell>
                </UserObject>
                <UserObject label="setVesting" rparent="0" type="text;strokeColor=none" override="" placeholders="1" id="_5QAXH1XhkQ4un_ZABmQ-7">
                    <mxCell style="shape=text;strokeColor=none;html=1;fillColor=none;spacingLeft=4;spacingRight=4;whiteSpace=wrap;overflow=hidden;rotatable=0;points=[[0,0.5],[1,0.5]];portConstraint=eastwest;fontFamily=Courier New;fontSize=10;align=left;" parent="_5QAXH1XhkQ4un_ZABmQ-4" vertex="1">
                        <mxGeometry y="66" width="160" height="30" as="geometry"/>
                    </mxCell>
                </UserObject>
                <UserObject label="💰 putVesting" rparent="0" type="text;strokeColor=none" override="" placeholders="1" id="_5QAXH1XhkQ4un_ZABmQ-8">
                    <mxCell style="shape=text;strokeColor=none;html=1;fillColor=none;spacingLeft=4;spacingRight=4;whiteSpace=wrap;overflow=hidden;rotatable=0;points=[[0,0.5],[1,0.5]];portConstraint=eastwest;fontFamily=Courier New;fontSize=10;align=left;" parent="_5QAXH1XhkQ4un_ZABmQ-4" vertex="1">
                        <mxGeometry y="96" width="160" height="30" as="geometry"/>
                    </mxCell>
                </UserObject>
                <UserObject label="🔍 isPaused" rparent="0" type="text;strokeColor=none" override="" placeholders="1" id="_5QAXH1XhkQ4un_ZABmQ-9">
                    <mxCell style="shape=text;strokeColor=none;html=1;fillColor=none;spacingLeft=4;spacingRight=4;whiteSpace=wrap;overflow=hidden;rotatable=0;points=[[0,0.5],[1,0.5]];portConstraint=eastwest;fontFamily=Courier New;fontSize=10;align=left;" parent="_5QAXH1XhkQ4un_ZABmQ-4" vertex="1">
                        <mxGeometry y="126" width="160" height="30" as="geometry"/>
                    </mxCell>
                </UserObject>
                <UserObject label="🔍 availableClaimToken1" rparent="0" type="text;strokeColor=none" override="" placeholders="1" id="_5QAXH1XhkQ4un_ZABmQ-10">
                    <mxCell style="shape=text;strokeColor=none;html=1;fillColor=none;spacingLeft=4;spacingRight=4;whiteSpace=wrap;overflow=hidden;rotatable=0;points=[[0,0.5],[1,0.5]];portConstraint=eastwest;fontFamily=Courier New;fontSize=10;align=left;" parent="_5QAXH1XhkQ4un_ZABmQ-4" vertex="1">
                        <mxGeometry y="156" width="160" height="30" as="geometry"/>
                    </mxCell>
                </UserObject>
                <UserObject label="claimWithdrawToken1" rparent="0" type="text;strokeColor=none" override="" placeholders="1" id="_5QAXH1XhkQ4un_ZABmQ-11">
                    <mxCell style="shape=text;strokeColor=none;html=1;fillColor=none;spacingLeft=4;spacingRight=4;whiteSpace=wrap;overflow=hidden;rotatable=0;points=[[0,0.5],[1,0.5]];portConstraint=eastwest;fontFamily=Courier New;fontSize=10;align=left;" parent="_5QAXH1XhkQ4un_ZABmQ-4" vertex="1">
                        <mxGeometry y="186" width="160" height="30" as="geometry"/>
                    </mxCell>
                </UserObject>
                <UserObject label="🔍 availableClaimToken2" rparent="0" type="text;strokeColor=none" override="" placeholders="1" id="_5QAXH1XhkQ4un_ZABmQ-12">
                    <mxCell style="shape=text;strokeColor=none;html=1;fillColor=none;spacingLeft=4;spacingRight=4;whiteSpace=wrap;overflow=hidden;rotatable=0;points=[[0,0.5],[1,0.5]];portConstraint=eastwest;fontFamily=Courier New;fontSize=10;align=left;" parent="_5QAXH1XhkQ4un_ZABmQ-4" vertex="1">
                        <mxGeometry y="216" width="160" height="30" as="geometry"/>
                    </mxCell>
                </UserObject>
                <UserObject label="claimWithdrawToken2" rparent="0" type="text;strokeColor=none" override="" placeholders="1" id="_5QAXH1XhkQ4un_ZABmQ-13">
                    <mxCell style="shape=text;strokeColor=none;html=1;fillColor=none;spacingLeft=4;spacingRight=4;whiteSpace=wrap;overflow=hidden;rotatable=0;points=[[0,0.5],[1,0.5]];portConstraint=eastwest;fontFamily=Courier New;fontSize=10;align=left;" parent="_5QAXH1XhkQ4un_ZABmQ-4" vertex="1">
                        <mxGeometry y="246" width="160" height="30" as="geometry"/>
                    </mxCell>
                </UserObject>
                <UserObject label="pauseWithdraw" rparent="0" type="text;strokeColor=none" override="" placeholders="1" id="_5QAXH1XhkQ4un_ZABmQ-14">
                    <mxCell style="shape=text;strokeColor=none;html=1;fillColor=none;spacingLeft=4;spacingRight=4;whiteSpace=wrap;overflow=hidden;rotatable=0;points=[[0,0.5],[1,0.5]];portConstraint=eastwest;fontFamily=Courier New;fontSize=10;align=left;" parent="_5QAXH1XhkQ4un_ZABmQ-4" vertex="1">
                        <mxGeometry y="276" width="160" height="30" as="geometry"/>
                    </mxCell>
                </UserObject>
                <UserObject label="voteAbort" rparent="0" type="text;strokeColor=none" override="" placeholders="1" id="_5QAXH1XhkQ4un_ZABmQ-15">
                    <mxCell style="shape=text;strokeColor=none;html=1;fillColor=none;spacingLeft=4;spacingRight=4;whiteSpace=wrap;overflow=hidden;rotatable=0;points=[[0,0.5],[1,0.5]];portConstraint=eastwest;fontFamily=Courier New;fontSize=10;align=left;" parent="_5QAXH1XhkQ4un_ZABmQ-4" vertex="1">
                        <mxGeometry y="306" width="160" height="30" as="geometry"/>
                    </mxCell>
                </UserObject>
                <UserObject label="refund" rparent="0" type="text;strokeColor=none" override="" placeholders="1" id="_5QAXH1XhkQ4un_ZABmQ-16">
                    <mxCell style="shape=text;strokeColor=none;html=1;fillColor=none;spacingLeft=4;spacingRight=4;whiteSpace=wrap;overflow=hidden;rotatable=0;points=[[0,0.5],[1,0.5]];portConstraint=eastwest;fontFamily=Courier New;fontSize=10;align=left;" parent="_5QAXH1XhkQ4un_ZABmQ-4" vertex="1">
                        <mxGeometry y="336" width="160" height="30" as="geometry"/>
                    </mxCell>
                </UserObject>
                <UserObject label="🔍 getVestedTok1" rparent="0" type="text;strokeColor=none" override="" placeholders="1" id="_5QAXH1XhkQ4un_ZABmQ-17">
                    <mxCell style="shape=text;strokeColor=none;html=1;fillColor=none;spacingLeft=4;spacingRight=4;whiteSpace=wrap;overflow=hidden;rotatable=0;points=[[0,0.5],[1,0.5]];portConstraint=eastwest;fontFamily=Courier New;fontSize=10;align=left;" parent="_5QAXH1XhkQ4un_ZABmQ-4" vertex="1">
                        <mxGeometry y="366" width="160" height="30" as="geometry"/>
                    </mxCell>
                </UserObject>
                <UserObject label="🔍 getVestedTok2" rparent="0" type="text;strokeColor=none" override="" placeholders="1" id="_5QAXH1XhkQ4un_ZABmQ-18">
                    <mxCell style="shape=text;strokeColor=none;html=1;fillColor=none;spacingLeft=4;spacingRight=4;whiteSpace=wrap;overflow=hidden;rotatable=0;points=[[0,0.5],[1,0.5]];portConstraint=eastwest;fontFamily=Courier New;fontSize=10;align=left;" parent="_5QAXH1XhkQ4un_ZABmQ-4" vertex="1">
                        <mxGeometry y="396" width="160" height="30" as="geometry"/>
                    </mxCell>
                </UserObject>
                <UserObject label="Collateral " rparent="-" type="" override="" placeholders="1" id="_5QAXH1XhkQ4un_ZABmQ-20">
                    <mxCell style="swimlane;html=1;fontStyle=0;childLayout=stackLayout;horizontal=1;startSize=26;fillColor=#e0e0e0;horizontalStack=0;resizeParent=1;resizeLast=0;collapsible=1;marginBottom=0;swimlaneFillColor=#ffffff;align=center;rounded=1;shadow=0;comic=0;labelBackgroundColor=none;strokeColor=#000000;strokeWidth=1;fontFamily=Verdana;fontSize=12;fontColor=#000000;arcSize=20;" parent="1" vertex="1">
                        <mxGeometry x="490" y="77" width="160" height="463" as="geometry"/>
                    </mxCell>
                </UserObject>
                <UserObject label="i2SV" rparent="0" type="mxgraph.bootstrap.rrect;strokeColor=none" override="fontSize=6" placeholders="1" id="_5QAXH1XhkQ4un_ZABmQ-21">
                    <mxCell style="shape=mxgraph.bootstrap.rrect;strokeColor=none;html=1;fillColor=#fff2cc;strokeColor=#d6b656;dashed=1;spacingLeft=4;spacingRight=4;whiteSpace=wrap;overflow=hidden;rotatable=0;points=[[0,0.5],[1,0.5]];portConstraint=eastwest;fontFamily=Courier New;fontSize=10;align=left;fontSize=6" parent="_5QAXH1XhkQ4un_ZABmQ-20" vertex="1">
                        <mxGeometry y="26" width="160" height="20" as="geometry"/>
                    </mxCell>
                </UserObject>
                <UserObject label="SafeMath" rparent="0" type="mxgraph.bootstrap.rrect" override="fontSize=6" placeholders="1" id="_5QAXH1XhkQ4un_ZABmQ-22">
                    <mxCell style="shape=mxgraph.bootstrap.rrect;html=1;fillColor=#E3F7E2;strokeColor=#82b366;dashed=1;spacingLeft=4;spacingRight=4;whiteSpace=wrap;overflow=hidden;rotatable=0;points=[[0,0.5],[1,0.5]];portConstraint=eastwest;fontFamily=Courier New;fontSize=10;align=left;fontSize=6" parent="_5QAXH1XhkQ4un_ZABmQ-20" vertex="1">
                        <mxGeometry y="46" width="160" height="20" as="geometry"/>
                    </mxCell>
                </UserObject>
                <UserObject label="setVesting" rparent="0" type="text;strokeColor=none" override="" placeholders="1" id="_5QAXH1XhkQ4un_ZABmQ-23">
                    <mxCell style="shape=text;strokeColor=none;html=1;fillColor=none;spacingLeft=4;spacingRight=4;whiteSpace=wrap;overflow=hidden;rotatable=0;points=[[0,0.5],[1,0.5]];portConstraint=eastwest;fontFamily=Courier New;fontSize=10;align=left;" parent="_5QAXH1XhkQ4un_ZABmQ-20" vertex="1">
                        <mxGeometry y="66" width="160" height="30" as="geometry"/>
                    </mxCell>
                </UserObject>
                <UserObject label="💰 putVesting" rparent="0" type="text;strokeColor=none" override="" placeholders="1" id="_5QAXH1XhkQ4un_ZABmQ-24">
                    <mxCell style="shape=text;strokeColor=none;html=1;fillColor=none;spacingLeft=4;spacingRight=4;whiteSpace=wrap;overflow=hidden;rotatable=0;points=[[0,0.5],[1,0.5]];portConstraint=eastwest;fontFamily=Courier New;fontSize=10;align=left;" parent="_5QAXH1XhkQ4un_ZABmQ-20" vertex="1">
                        <mxGeometry y="96" width="160" height="30" as="geometry"/>
                    </mxCell>
                </UserObject>
                <UserObject label="🔍 isPaused" rparent="0" type="text;strokeColor=none" override="" placeholders="1" id="_5QAXH1XhkQ4un_ZABmQ-25">
                    <mxCell style="shape=text;strokeColor=none;html=1;fillColor=none;spacingLeft=4;spacingRight=4;whiteSpace=wrap;overflow=hidden;rotatable=0;points=[[0,0.5],[1,0.5]];portConstraint=eastwest;fontFamily=Courier New;fontSize=10;align=left;" parent="_5QAXH1XhkQ4un_ZABmQ-20" vertex="1">
                        <mxGeometry y="126" width="160" height="30" as="geometry"/>
                    </mxCell>
                </UserObject>
                <UserObject label="🔍 availableClaimToken1" rparent="0" type="text;strokeColor=none" override="" placeholders="1" id="_5QAXH1XhkQ4un_ZABmQ-26">
                    <mxCell style="shape=text;strokeColor=none;html=1;fillColor=none;spacingLeft=4;spacingRight=4;whiteSpace=wrap;overflow=hidden;rotatable=0;points=[[0,0.5],[1,0.5]];portConstraint=eastwest;fontFamily=Courier New;fontSize=10;align=left;" parent="_5QAXH1XhkQ4un_ZABmQ-20" vertex="1">
                        <mxGeometry y="156" width="160" height="30" as="geometry"/>
                    </mxCell>
                </UserObject>
                <UserObject label="claimWithdrawToken1" rparent="0" type="text;strokeColor=none" override="" placeholders="1" id="_5QAXH1XhkQ4un_ZABmQ-27">
                    <mxCell style="shape=text;strokeColor=none;html=1;fillColor=none;spacingLeft=4;spacingRight=4;whiteSpace=wrap;overflow=hidden;rotatable=0;points=[[0,0.5],[1,0.5]];portConstraint=eastwest;fontFamily=Courier New;fontSize=10;align=left;" parent="_5QAXH1XhkQ4un_ZABmQ-20" vertex="1">
                        <mxGeometry y="186" width="160" height="30" as="geometry"/>
                    </mxCell>
                </UserObject>
                <UserObject label="🔍 availableClaimToken2" rparent="0" type="text;strokeColor=none" override="" placeholders="1" id="_5QAXH1XhkQ4un_ZABmQ-28">
                    <mxCell style="shape=text;strokeColor=none;html=1;fillColor=none;spacingLeft=4;spacingRight=4;whiteSpace=wrap;overflow=hidden;rotatable=0;points=[[0,0.5],[1,0.5]];portConstraint=eastwest;fontFamily=Courier New;fontSize=10;align=left;" parent="_5QAXH1XhkQ4un_ZABmQ-20" vertex="1">
                        <mxGeometry y="216" width="160" height="30" as="geometry"/>
                    </mxCell>
                </UserObject>
                <UserObject label="claimWithdrawToken2" rparent="0" type="text;strokeColor=none" override="" placeholders="1" id="_5QAXH1XhkQ4un_ZABmQ-29">
                    <mxCell style="shape=text;strokeColor=none;html=1;fillColor=none;spacingLeft=4;spacingRight=4;whiteSpace=wrap;overflow=hidden;rotatable=0;points=[[0,0.5],[1,0.5]];portConstraint=eastwest;fontFamily=Courier New;fontSize=10;align=left;" parent="_5QAXH1XhkQ4un_ZABmQ-20" vertex="1">
                        <mxGeometry y="246" width="160" height="30" as="geometry"/>
                    </mxCell>
                </UserObject>
                <UserObject label="pauseWithdraw" rparent="0" type="text;strokeColor=none" override="" placeholders="1" id="_5QAXH1XhkQ4un_ZABmQ-30">
                    <mxCell style="shape=text;strokeColor=none;html=1;fillColor=none;spacingLeft=4;spacingRight=4;whiteSpace=wrap;overflow=hidden;rotatable=0;points=[[0,0.5],[1,0.5]];portConstraint=eastwest;fontFamily=Courier New;fontSize=10;align=left;" parent="_5QAXH1XhkQ4un_ZABmQ-20" vertex="1">
                        <mxGeometry y="276" width="160" height="30" as="geometry"/>
                    </mxCell>
                </UserObject>
                <UserObject label="voteAbort" rparent="0" type="text;strokeColor=none" override="" placeholders="1" id="_5QAXH1XhkQ4un_ZABmQ-31">
                    <mxCell style="shape=text;strokeColor=none;html=1;fillColor=none;spacingLeft=4;spacingRight=4;whiteSpace=wrap;overflow=hidden;rotatable=0;points=[[0,0.5],[1,0.5]];portConstraint=eastwest;fontFamily=Courier New;fontSize=10;align=left;" parent="_5QAXH1XhkQ4un_ZABmQ-20" vertex="1">
                        <mxGeometry y="306" width="160" height="30" as="geometry"/>
                    </mxCell>
                </UserObject>
                <UserObject label="refund" rparent="0" type="text;strokeColor=none" override="" placeholders="1" id="_5QAXH1XhkQ4un_ZABmQ-32">
                    <mxCell style="shape=text;strokeColor=none;html=1;fillColor=none;spacingLeft=4;spacingRight=4;whiteSpace=wrap;overflow=hidden;rotatable=0;points=[[0,0.5],[1,0.5]];portConstraint=eastwest;fontFamily=Courier New;fontSize=10;align=left;" parent="_5QAXH1XhkQ4un_ZABmQ-20" vertex="1">
                        <mxGeometry y="336" width="160" height="30" as="geometry"/>
                    </mxCell>
                </UserObject>
                <UserObject label="🔍 getVestedTok1" rparent="0" type="text;strokeColor=none" override="" placeholders="1" id="_5QAXH1XhkQ4un_ZABmQ-33">
                    <mxCell style="shape=text;strokeColor=none;html=1;fillColor=none;spacingLeft=4;spacingRight=4;whiteSpace=wrap;overflow=hidden;rotatable=0;points=[[0,0.5],[1,0.5]];portConstraint=eastwest;fontFamily=Courier New;fontSize=10;align=left;" parent="_5QAXH1XhkQ4un_ZABmQ-20" vertex="1">
                        <mxGeometry y="366" width="160" height="30" as="geometry"/>
                    </mxCell>
                </UserObject>
                <UserObject label="🔍 getVestedTok2" rparent="0" type="text;strokeColor=none" override="" placeholders="1" id="_5QAXH1XhkQ4un_ZABmQ-34">
                    <mxCell style="shape=text;strokeColor=none;html=1;fillColor=none;spacingLeft=4;spacingRight=4;whiteSpace=wrap;overflow=hidden;rotatable=0;points=[[0,0.5],[1,0.5]];portConstraint=eastwest;fontFamily=Courier New;fontSize=10;align=left;" parent="_5QAXH1XhkQ4un_ZABmQ-20" vertex="1">
                        <mxGeometry y="396" width="160" height="30" as="geometry"/>
                    </mxCell>
                </UserObject>
                <UserObject label="VestCampaing" rparent="-" type="" override="" placeholders="1" id="_5QAXH1XhkQ4un_ZABmQ-36">
                    <mxCell style="swimlane;html=1;fontStyle=0;childLayout=stackLayout;horizontal=1;startSize=26;fillColor=#e0e0e0;horizontalStack=0;resizeParent=1;resizeLast=0;collapsible=1;marginBottom=0;swimlaneFillColor=#ffffff;align=center;rounded=1;shadow=0;comic=0;labelBackgroundColor=none;strokeColor=#000000;strokeWidth=1;fontFamily=Verdana;fontSize=12;fontColor=#000000;arcSize=20;" parent="1" vertex="1">
                        <mxGeometry x="100" y="580" width="90" height="116" as="geometry"/>
                    </mxCell>
                </UserObject>
                <UserObject label="i2SVstruct" rparent="0" type="mxgraph.bootstrap.rrect;strokeColor=none" override="fontSize=6" placeholders="1" id="_5QAXH1XhkQ4un_ZABmQ-37">
                    <mxCell style="shape=mxgraph.bootstrap.rrect;strokeColor=none;html=1;fillColor=#fff2cc;strokeColor=#d6b656;dashed=1;spacingLeft=4;spacingRight=4;whiteSpace=wrap;overflow=hidden;rotatable=0;points=[[0,0.5],[1,0.5]];portConstraint=eastwest;fontFamily=Courier New;fontSize=10;align=left;fontSize=6" parent="_5QAXH1XhkQ4un_ZABmQ-36" vertex="1">
                        <mxGeometry y="26" width="90" height="20" as="geometry"/>
                    </mxCell>
                </UserObject>
                <UserObject label="deployVest" rparent="0" type="text;strokeColor=none" override="" placeholders="1" id="_5QAXH1XhkQ4un_ZABmQ-38">
                    <mxCell style="shape=text;strokeColor=none;html=1;fillColor=none;spacingLeft=4;spacingRight=4;whiteSpace=wrap;overflow=hidden;rotatable=0;points=[[0,0.5],[1,0.5]];portConstraint=eastwest;fontFamily=Courier New;fontSize=10;align=left;" parent="_5QAXH1XhkQ4un_ZABmQ-36" vertex="1">
                        <mxGeometry y="46" width="90" height="30" as="geometry"/>
                    </mxCell>
                </UserObject>
                <mxCell id="5" style="edgeStyle=none;html=1;entryX=0.5;entryY=0;entryDx=0;entryDy=0;fontFamily=Verdana;fontSize=8;" edge="1" parent="1" source="2" target="_5QAXH1XhkQ4un_ZABmQ-4">
                    <mxGeometry relative="1" as="geometry"/>
                </mxCell>
                <mxCell id="6" style="edgeStyle=none;html=1;entryX=0.5;entryY=0;entryDx=0;entryDy=0;fontFamily=Verdana;fontSize=8;" edge="1" parent="1" source="2" target="sva-16686795008600">
                    <mxGeometry relative="1" as="geometry"/>
                </mxCell>
                <mxCell id="7" style="edgeStyle=none;html=1;entryX=0.5;entryY=0;entryDx=0;entryDy=0;fontFamily=Verdana;fontSize=8;" edge="1" parent="1" source="2" target="_5QAXH1XhkQ4un_ZABmQ-20">
                    <mxGeometry relative="1" as="geometry"/>
                </mxCell>
                <UserObject label="i2SVstructs" rparent="-" type="" override="" placeholders="1" id="2">
                    <mxCell style="swimlane;html=1;fontStyle=0;childLayout=stackLayout;horizontal=1;startSize=26;fillColor=#e0e0e0;horizontalStack=0;resizeParent=1;resizeLast=0;collapsible=1;marginBottom=0;swimlaneFillColor=#ffffff;align=center;rounded=1;shadow=0;comic=0;labelBackgroundColor=none;strokeColor=#000000;strokeWidth=1;fontFamily=Verdana;fontSize=12;fontColor=#000000;arcSize=0;" vertex="1" parent="1">
                        <mxGeometry x="10" y="-570" width="390" height="440" as="geometry"/>
                    </mxCell>
                </UserObject>
                <UserObject label="i2SVstruct" rparent="0" type="mxgraph.bootstrap.rrect;strokeColor=none" override="fontSize=6" placeholders="1" id="3">
                    <mxCell style="shape=mxgraph.bootstrap.rrect;strokeColor=none;html=1;fillColor=#fff2cc;strokeColor=#d6b656;dashed=1;spacingLeft=4;spacingRight=4;whiteSpace=wrap;overflow=hidden;rotatable=0;points=[[0,0.5],[1,0.5]];portConstraint=eastwest;fontFamily=Courier New;fontSize=10;align=left;fontSize=6" vertex="1" parent="2">
                        <mxGeometry y="26" width="390" height="20" as="geometry"/>
                    </mxCell>
                </UserObject>
                <UserObject label="&lt;div style=&quot;line-height: 1 ; background-color: rgb(30 , 30 , 30) ; font-size: 8px ; color: rgb(212 , 212 , 212)&quot;&gt;&lt;div&gt;&lt;font style=&quot;font-size: 8px&quot; face=&quot;Verdana&quot;&gt;&lt;span style=&quot;color: rgb(86 , 156 , 214)&quot;&gt;interface&lt;/span&gt; i2SVstruct {&lt;/font&gt;&lt;/div&gt;&lt;div&gt;    &lt;font face=&quot;Verdana&quot; style=&quot;font-size: 8px&quot;&gt;&lt;span style=&quot;color: #6a9955&quot;&gt;/// &lt;/span&gt;&lt;span style=&quot;color: #569cd6&quot;&gt;@title&lt;/span&gt;&lt;span style=&quot;color: #6a9955&quot;&gt; interface describes structures in vesting&lt;/span&gt;&lt;/font&gt;&lt;/div&gt;&lt;div&gt;    &lt;font face=&quot;Verdana&quot; style=&quot;font-size: 8px&quot;&gt;&lt;span style=&quot;color: #6a9955&quot;&gt;/// &lt;/span&gt;&lt;span style=&quot;color: #569cd6&quot;&gt;@author&lt;/span&gt;&lt;span style=&quot;color: #6a9955&quot;&gt; stanta&lt;/span&gt;&lt;/font&gt;&lt;/div&gt;&lt;div&gt;    &lt;font face=&quot;Verdana&quot; style=&quot;font-size: 8px&quot;&gt;&lt;span style=&quot;color: #6a9955&quot;&gt;/// &lt;/span&gt;&lt;span style=&quot;color: #569cd6&quot;&gt;@dev&lt;/span&gt;&lt;span style=&quot;color: #6a9955&quot;&gt; nesting in VestDAIDO contract&lt;/span&gt;&lt;/font&gt;&lt;/div&gt;&lt;div&gt;    &lt;font face=&quot;Verdana&quot; style=&quot;font-size: 8px&quot;&gt;&lt;span style=&quot;color: #569cd6&quot;&gt;struct&lt;/span&gt; Rule {        &lt;/font&gt;&lt;/div&gt;&lt;div&gt;&lt;font face=&quot;Verdana&quot; style=&quot;font-size: 8px&quot;&gt;        uint256 amount1; &lt;span style=&quot;color: rgb(106 , 153 , 85)&quot;&gt;//amount tokens of 1st side  that sends to  2nd side for this period,  f.e. amount of team's token for this period that sends to investors&lt;/span&gt;&lt;/font&gt;&lt;/div&gt;&lt;div&gt;&lt;font face=&quot;Verdana&quot; style=&quot;font-size: 8px&quot;&gt;        uint256 amount2; &lt;span style=&quot;color: rgb(106 , 153 , 85)&quot;&gt;//amount tokens of 2st side  that sends to  1nd side for this period,  f.e  amount of invested  token  that sends to team&lt;/span&gt;&lt;/font&gt;&lt;/div&gt;&lt;div&gt;&lt;font face=&quot;Verdana&quot; style=&quot;font-size: 8px&quot;&gt;        uint256 claimTime; &lt;span style=&quot;color: rgb(106 , 153 , 85)&quot;&gt;// block.timestamp marks end of vesting period&lt;/span&gt;&lt;/font&gt;&lt;/div&gt;&lt;div&gt;&lt;font face=&quot;Verdana&quot; style=&quot;font-size: 8px&quot;&gt;    }&lt;/font&gt;&lt;/div&gt;&lt;font style=&quot;font-size: 8px&quot; face=&quot;Verdana&quot;&gt;&lt;br&gt;&lt;/font&gt;&lt;div&gt;    &lt;font face=&quot;Verdana&quot; style=&quot;font-size: 8px&quot;&gt;&lt;span style=&quot;color: #569cd6&quot;&gt;struct&lt;/span&gt; Withdrawpauses {&lt;/font&gt;&lt;/div&gt;&lt;div&gt;&lt;font face=&quot;Verdana&quot; style=&quot;font-size: 8px&quot;&gt;        address initiator; &lt;span style=&quot;color: rgb(106 , 153 , 85)&quot;&gt;//who pauses withdrawing&lt;/span&gt;&lt;/font&gt;&lt;/div&gt;&lt;div&gt;&lt;font face=&quot;Verdana&quot; style=&quot;font-size: 8px&quot;&gt;        uint256 pauseTime; &lt;span style=&quot;color: rgb(106 , 153 , 85)&quot;&gt;//time pauses withdrawing&lt;/span&gt;&lt;/font&gt;&lt;/div&gt;&lt;div&gt;&lt;font face=&quot;Verdana&quot; style=&quot;font-size: 8px&quot;&gt;    }&lt;/font&gt;&lt;/div&gt;&lt;font style=&quot;font-size: 8px&quot; face=&quot;Verdana&quot;&gt;&lt;br&gt;&lt;/font&gt;&lt;div&gt;    &lt;font face=&quot;Verdana&quot; style=&quot;font-size: 8px&quot;&gt;&lt;span style=&quot;color: #569cd6&quot;&gt;struct&lt;/span&gt; Vesting {&lt;/font&gt;&lt;/div&gt;&lt;div&gt;&lt;font face=&quot;Verdana&quot; style=&quot;font-size: 8px&quot;&gt;        uint256 amount1; &lt;span style=&quot;color: rgb(106 , 153 , 85)&quot;&gt;//total amount tokens of 1st side  that sends to  2nd side,  f.e. amount of team's token for this period that sends to investors&lt;/span&gt;&lt;/font&gt;&lt;/div&gt;&lt;div&gt;&lt;font face=&quot;Verdana&quot; style=&quot;font-size: 8px&quot;&gt;        uint256 amount2; &lt;span style=&quot;color: rgb(106 , 153 , 85)&quot;&gt;// total amount tokens of 2st side  that sends to  1nd side,  f.e  amount of invested  token  that sends to team            &lt;/span&gt;&lt;/font&gt;&lt;/div&gt;&lt;div&gt;&lt;font face=&quot;Verdana&quot; style=&quot;font-size: 8px&quot;&gt;        uint256 softCap1; &lt;span style=&quot;color: rgb(106 , 153 , 85)&quot;&gt;//total amount tokens of 1st side  that sends to  2nd side,  f.e. amount of team's token for this period that sends to investors&lt;/span&gt;&lt;/font&gt;&lt;/div&gt;&lt;div&gt;&lt;font face=&quot;Verdana&quot; style=&quot;font-size: 8px&quot;&gt;        uint256 SoftCap2; &lt;span style=&quot;color: rgb(106 , 153 , 85)&quot;&gt;// total amount tokens of 2st side  that sends to  1nd side,  f.e  amount of invested  token  that sends to team                        &lt;/span&gt;&lt;/font&gt;&lt;/div&gt;&lt;div&gt;&lt;font face=&quot;Verdana&quot; style=&quot;font-size: 8px&quot;&gt;        address token1; &lt;span style=&quot;color: rgb(106 , 153 , 85)&quot;&gt;//bought tokens&lt;/span&gt;&lt;/font&gt;&lt;/div&gt;&lt;div&gt;&lt;font face=&quot;Verdana&quot; style=&quot;font-size: 8px&quot;&gt;        address token2; &lt;span style=&quot;color: rgb(106 , 153 , 85)&quot;&gt;//vested tokens,  if isNative ==true, must set to &quot;0x1&quot;&lt;/span&gt;&lt;/font&gt;&lt;/div&gt;&lt;div&gt;&lt;font face=&quot;Verdana&quot; style=&quot;font-size: 8px&quot;&gt;        uint256 startDate; &lt;/font&gt;&lt;/div&gt;&lt;div&gt;&lt;font face=&quot;Verdana&quot; style=&quot;font-size: 8px&quot;&gt;        uint256 pausePeriod; &lt;span style=&quot;color: rgb(106 , 153 , 85)&quot;&gt;// period that withdrawing cab be pauseped until voting;&lt;/span&gt;&lt;/font&gt;&lt;/div&gt;&lt;div&gt;&lt;font face=&quot;Verdana&quot; style=&quot;font-size: 8px&quot;&gt;        uint8 vestShare4pauseWithdraw; &lt;span style=&quot;color: rgb(106 , 153 , 85)&quot;&gt;//share in percents of raised,  needed to be vested to  pause (to avoid greenmailer' dust attacks)&lt;/span&gt;&lt;/font&gt;&lt;/div&gt;&lt;div&gt;&lt;font face=&quot;Verdana&quot; style=&quot;font-size: 8px&quot;&gt;        uint8 voteShareAbort; &lt;span style=&quot;color: rgb(106 , 153 , 85)&quot;&gt;//share in percents of stakes needed to approve voting in this vesting&lt;/span&gt;&lt;/font&gt;&lt;/div&gt;&lt;div&gt;&lt;font face=&quot;Verdana&quot; style=&quot;font-size: 8px&quot;&gt;        bool isNative; &lt;span style=&quot;color: rgb(106 , 153 , 85)&quot;&gt;// true if this vesting uses blockchain native token to vest, f.e. ETH in Ethereum mainnet&lt;/span&gt;&lt;/font&gt;&lt;/div&gt;&lt;div&gt;        &lt;/div&gt;&lt;div&gt;&lt;font face=&quot;Verdana&quot; style=&quot;font-size: 8px&quot;&gt;        address teamWallet; &lt;span style=&quot;color: rgb(106 , 153 , 85)&quot;&gt;//        &lt;/span&gt;&lt;/font&gt;&lt;/div&gt;&lt;div&gt;        &lt;/div&gt;&lt;div&gt;&lt;font face=&quot;Verdana&quot; style=&quot;font-size: 8px&quot;&gt;    } &lt;/font&gt;&lt;/div&gt;&lt;font style=&quot;font-size: 8px&quot; face=&quot;Verdana&quot;&gt;&lt;br&gt;&lt;/font&gt;&lt;div&gt;    &lt;font face=&quot;Verdana&quot; style=&quot;font-size: 8px&quot;&gt;&lt;span style=&quot;color: #569cd6&quot;&gt;event&lt;/span&gt; CreatedVesting ( address &lt;span style=&quot;color: rgb(86 , 156 , 214)&quot;&gt;indexed&lt;/span&gt;, Vesting, Rule[]); &lt;span style=&quot;color: rgb(106 , 153 , 85)&quot;&gt;//vesting contract, terms,  conditions&lt;/span&gt;&lt;/font&gt;&lt;/div&gt;&lt;div&gt;    &lt;font face=&quot;Verdana&quot; style=&quot;font-size: 8px&quot;&gt;&lt;span style=&quot;color: #569cd6&quot;&gt;event&lt;/span&gt; Vested(address &lt;span style=&quot;color: rgb(86 , 156 , 214)&quot;&gt;indexed&lt;/span&gt;, address &lt;span style=&quot;color: rgb(86 , 156 , 214)&quot;&gt;indexed&lt;/span&gt;, address &lt;span style=&quot;color: rgb(86 , 156 , 214)&quot;&gt;indexed&lt;/span&gt;, uint256); &lt;span style=&quot;color: rgb(106 , 153 , 85)&quot;&gt;// vesting contract, token, vestor, amount&lt;/span&gt;&lt;/font&gt;&lt;/div&gt;&lt;font style=&quot;font-size: 8px&quot; face=&quot;Verdana&quot;&gt;&lt;br&gt;&lt;/font&gt;&lt;div&gt;    &lt;font face=&quot;Verdana&quot; style=&quot;font-size: 8px&quot;&gt;&lt;span style=&quot;color: #569cd6&quot;&gt;event&lt;/span&gt; Claimed(address &lt;span style=&quot;color: rgb(86 , 156 , 214)&quot;&gt;indexed&lt;/span&gt;, address &lt;span style=&quot;color: rgb(86 , 156 , 214)&quot;&gt;indexed&lt;/span&gt;, address &lt;span style=&quot;color: rgb(86 , 156 , 214)&quot;&gt;indexed&lt;/span&gt;, uint256); &lt;span style=&quot;color: rgb(106 , 153 , 85)&quot;&gt;// vesting contract, token, recepient, amount&lt;/span&gt;&lt;/font&gt;&lt;/div&gt;&lt;div&gt;    &lt;font face=&quot;Verdana&quot; style=&quot;font-size: 8px&quot;&gt;&lt;span style=&quot;color: #569cd6&quot;&gt;event&lt;/span&gt; VestStatus (address &lt;span style=&quot;color: rgb(86 , 156 , 214)&quot;&gt;indexed&lt;/span&gt;,   uint8 &lt;span style=&quot;color: rgb(86 , 156 , 214)&quot;&gt;indexed&lt;/span&gt;);&lt;span style=&quot;color: rgb(106 , 153 , 85)&quot;&gt;// vesting contract, status&lt;/span&gt;&lt;/font&gt;&lt;/div&gt;&lt;div&gt;    &lt;font face=&quot;Verdana&quot; style=&quot;font-size: 8px&quot;&gt;&lt;span style=&quot;color: #569cd6&quot;&gt;event&lt;/span&gt; Voting (address, uint256); &lt;span style=&quot;color: rgb(106 , 153 , 85)&quot;&gt;//// vesting contract, voted for abort&lt;/span&gt;&lt;/font&gt;&lt;/div&gt;&lt;div&gt;&lt;font style=&quot;font-size: 8px&quot; face=&quot;Verdana&quot;&gt;}&lt;/font&gt;&lt;/div&gt;&lt;/div&gt;" rparent="0" type="text;strokeColor=none" override="" placeholders="1" id="4">
                    <mxCell style="shape=text;strokeColor=none;html=1;fillColor=none;spacingLeft=4;spacingRight=4;whiteSpace=wrap;overflow=hidden;rotatable=0;points=[[0,0.5],[1,0.5]];portConstraint=eastwest;fontFamily=Courier New;fontSize=10;align=left;" vertex="1" parent="2">
                        <mxGeometry y="46" width="390" height="374" as="geometry"/>
                    </mxCell>
                </UserObject>
                <UserObject label="deployVest" rparent="0" type="text;strokeColor=none" override="" placeholders="1" id="sva-16686790202040_f0">
                    <mxCell style="shape=text;strokeColor=none;html=1;fillColor=none;spacingLeft=4;spacingRight=4;whiteSpace=wrap;overflow=hidden;rotatable=0;points=[[0,0.5],[1,0.5]];portConstraint=eastwest;fontFamily=Courier New;fontSize=10;align=left;" parent="1" vertex="1">
                        <mxGeometry x="500" y="-84" width="90" height="30" as="geometry"/>
                    </mxCell>
                </UserObject>
            </root>
        </mxGraphModel>
    </diagram>
</mxfile>